<svg xmlns="http://www.w3.org/2000/svg" width="48.031" height="40" viewBox="0 0 48.031 40">
  <metadata><?xpacket begin="﻿" id="W5M0MpCehiHzreSzNTczkc9d"?>
<x:xmpmeta xmlns:x="adobe:ns:meta/" x:xmptk="Adobe XMP Core 5.6-c138 79.159824, 2016/09/14-01:09:01        ">
   <rdf:RDF xmlns:rdf="http://www.w3.org/1999/02/22-rdf-syntax-ns#">
      <rdf:Description rdf:about=""/>
   </rdf:RDF>
</x:xmpmeta>
                                                                                                    
                                                                                                    
                                                                                                    
                                                                                                    
                                                                                                    
                                                                                                    
                                                                                                    
                                                                                                    
                                                                                                    
                                                                                                    
                                                                                                    
                                                                                                    
                                                                                                    
                                                                                                    
                                                                                                    
                                                                                                    
                                                                                                    
                                                                                                    
                                                                                                    
                                                                                                    
                           
<?xpacket end="w"?></metadata>
<defs>
    <style>
      .cls-1 {
        fill: #fff;
        fill-rule: evenodd;
      }
    </style>
  </defs>
  <path id="_24tv" data-name="24tv" class="cls-1" d="M119.688,71.931a10.31,10.31,0,0,0,.374-7.962c-2.951-7.24-15.33-8.931-27.647-3.768C80.558,65.176,73.082,74.685,75.176,81.853l-0.638.048C71.826,74.679,79.624,64.395,92.253,58.7A39.333,39.333,0,0,1,108.082,55c6.376,0,11.4,2.152,13.217,6.288C122.675,64.426,121.971,68.2,119.688,71.931ZM83.782,76.288A62.348,62.348,0,0,1,90,72.271q3.4-2.036,3.834-3.91a1.385,1.385,0,0,0-.362-1.417,2.077,2.077,0,0,0-1.492-.537,3.081,3.081,0,0,0-2.466,1.157,6.038,6.038,0,0,0-1.16,2.56H83.281a9.365,9.365,0,0,1,9.964-8.013,7.592,7.592,0,0,1,4.99,1.431q1.982,1.657,1.241,4.848a7.633,7.633,0,0,1-3.417,4.571q-0.743.524-3.135,1.819-0.87.492-2.364,1.249c-0.995.51-1.67,0.868-2.026,1.086H97.4L96.324,81.8H80.23a9.046,9.046,0,0,1,1.24-2.959A12.268,12.268,0,0,1,83.782,76.288Zm15.705-3.135L110.9,62.386h5.265l-2.562,11.1H116l-0.987,4.267H112.62L111.688,81.8h-5.374l0.932-4.047h-8.82Zm8.745,0.33,1.369-5.92-5.928,5.92h4.559ZM86.906,94.6a0.545,0.545,0,0,0,.13.229,0.468,0.468,0,0,0,.293.063h1.094q0.249,0,.173-0.244L88.01,92.756a5.152,5.152,0,0,0-.317-0.766,0.952,0.952,0,0,0-.5-0.444,1.02,1.02,0,0,0,.47-0.434,3.834,3.834,0,0,0,.346-0.786l0.509-1.65q0.077-.244-0.173-0.244H87.328a0.469,0.469,0,0,0-.293.063,0.547,0.547,0,0,0-.13.229l-0.47,1.493a1.2,1.2,0,0,1-.163.347,0.749,0.749,0,0,1-.206.2,0.7,0.7,0,0,1-.226.093,1.107,1.107,0,0,1-.23.024H85.082V88.628a0.36,0.36,0,0,0-.034-0.151A0.166,0.166,0,0,0,84.88,88.4H83.738a0.2,0.2,0,0,0-.173.063,0.259,0.259,0,0,0-.048.161v6.051a0.193,0.193,0,0,0,.221.215H84.88a0.166,0.166,0,0,0,.168-0.073,0.34,0.34,0,0,0,.034-0.142V92.2h0.5a0.978,0.978,0,0,1,.48.122,0.909,0.909,0,0,1,.355.552Zm4.2-1.171h1.91l0.317,1.161a0.725,0.725,0,0,0,.106.229,0.27,0.27,0,0,0,.221.073h1.19a0.114,0.114,0,0,0,.125-0.059,0.342,0.342,0,0,0-.01-0.176L93.033,88.7a0.738,0.738,0,0,0-.11-0.215,0.334,0.334,0,0,0-.264-0.078h-1.21a0.349,0.349,0,0,0-.259.073,0.606,0.606,0,0,0-.115.21L89.222,94.64a0.26,0.26,0,0,0-.01.21,0.186,0.186,0,0,0,.144.044h1.066a0.341,0.341,0,0,0,.211-0.059,0.419,0.419,0,0,0,.125-0.215Zm1.574-1.181H91.43l0.288-1.088,0.317-1.186h0.048l0.307,1.2Zm6.428-1.366H97.234V88.628a0.362,0.362,0,0,0-.034-0.152,0.166,0.166,0,0,0-.168-0.073H95.919a0.192,0.192,0,0,0-.163.063,0.259,0.259,0,0,0-.048.161v6.051a0.188,0.188,0,0,0,.211.215h1.114a0.17,0.17,0,0,0,.168-0.068,0.326,0.326,0,0,0,.034-0.146v-2.5h1.872v2.5a0.188,0.188,0,0,0,.211.215h1.114a0.171,0.171,0,0,0,.168-0.068,0.331,0.331,0,0,0,.033-0.146V88.628a0.364,0.364,0,0,0-.033-0.151,0.167,0.167,0,0,0-.168-0.073H99.317a0.192,0.192,0,0,0-.163.064,0.261,0.261,0,0,0-.048.162v2.254Zm4.163,2.547h1.911l0.317,1.161a0.735,0.735,0,0,0,.105.229,0.271,0.271,0,0,0,.221.073h1.19a0.114,0.114,0,0,0,.125-0.059,0.34,0.34,0,0,0-.009-0.176L105.2,88.7a0.75,0.75,0,0,0-.11-0.215,0.335,0.335,0,0,0-.264-0.078h-1.21a0.349,0.349,0,0,0-.259.073,0.6,0.6,0,0,0-.115.21l-1.853,5.953a0.264,0.264,0,0,0-.01.21,0.188,0.188,0,0,0,.144.044h1.066a0.341,0.341,0,0,0,.211-0.059,0.42,0.42,0,0,0,.125-0.215Zm1.575-1.181H103.6l0.288-1.088,0.317-1.186h0.048l0.307,1.2Zm5.5-2.518h1.046v4.948a0.193,0.193,0,0,0,.221.215h1.142a0.169,0.169,0,0,0,.168-0.068,0.319,0.319,0,0,0,.034-0.146V88.637a0.189,0.189,0,0,0-.2-0.225h-3.571a0.193,0.193,0,0,0-.211.225q-0.048.918-.106,1.825T108.749,92.3a5.735,5.735,0,0,1-.082.713,1.326,1.326,0,0,1-.158.444,0.705,0.705,0,0,1-.269.259,1.708,1.708,0,0,1-.4.146,0.513,0.513,0,0,0-.173.073,0.251,0.251,0,0,0-.038.171c0,0.111,0,.218.014,0.322s0.015,0.212.015,0.322a0.257,0.257,0,0,0,.062.2,0.522,0.522,0,0,0,.312.059,3.011,3.011,0,0,0,.989-0.156,1.474,1.474,0,0,0,.633-0.434,1.855,1.855,0,0,0,.356-0.717,6.414,6.414,0,0,0,.172-1.01q0.059-.581.082-1.318t0.082-1.635h0Z" transform="translate(-73.969 -55)"/>
</svg>
