<?xml version="1.0" encoding="utf-8"?>
<!-- Generator: Adobe Illustrator 15.1.0, SVG Export Plug-In . SVG Version: 6.00 Build 0)  -->
<!DOCTYPE svg PUBLIC "-//W3C//DTD SVG 1.1//EN" "http://www.w3.org/Graphics/SVG/1.1/DTD/svg11.dtd">
<svg version="1.1" id="Layer_1" xmlns="http://www.w3.org/2000/svg" xmlns:xlink="http://www.w3.org/1999/xlink" x="0px" y="0px"
	 width="963.779px" height="263.622px" viewBox="-12.437 -17.912 963.779 263.622"
	 enable-background="new -12.437 -17.912 963.779 263.622" xml:space="preserve">
<polygon fill="#FFFFFF" points="425.704,32.29 387.868,210.477 346.704,210.477 384.542,32.29 "/>
<polygon fill="#FFFFFF" points="463.932,210.477 494.123,68.339 434.53,68.339 442.202,32.29 602.52,32.29 594.853,68.339 
	535.538,68.339 505.371,210.477 "/>
<path fill="#FFFFFF" d="M686.565,27.938c16.619,0,37.581,2.559,50.365,6.396l-15.6,36.304c-8.182-3.064-22.751-4.854-33.995-4.854
	c-35.79,0-50.106,5.112-60.59,54.451c-10.481,49.079,1.279,55.734,37.071,55.734c11.234,0,26.841-2.047,36.042-4.857v37.07
	c-14.574,3.583-36.042,5.878-52.661,5.878c-57.269,0-79.763-21.726-64.423-94.336C598.371,46.859,629.306,27.938,686.565,27.938"/>
<path fill="#23BAE6" d="M808.863,110.778h18.484l-20.063,94.198c-12.582,4.919-31.459,8.265-45.228,8.265
	c-28.515,0-37.761-10.624-30.088-46.606l11.797-55.855h18.483l-11.402,53.485c-5.51,26.155-1.381,31.867,18.291,31.867
	c8.06,0,14.947-0.794,22.221-2.961L808.863,110.778z"/>
<path fill="#23BAE6" d="M866.689,213.042c-23.011,0-35.004-7.279-35.004-29.901c0-6.29,0.979-13.764,2.751-22.417
	c8.459-40.896,25.765-52.695,57.624-52.695c13.175,0,30.48,2.945,40.313,7.466l-14.162,66.47c-0.585,2.758-0.979,5.521-0.979,7.862
	c0,5.315,1.764,9.836,5.895,14.357l-16.318,10.027c-4.129-2.157-7.866-8.06-8.459-12.189
	C891.268,208.525,879.864,213.042,866.689,213.042 M911.13,127.689c-6.094-2.359-14.547-3.544-22.611-3.544
	c-20.257,0-27.923,5.51-34.41,36.393c-1.586,7.661-2.56,13.759-2.56,18.476c0,13.378,6.689,17.501,21.436,17.501
	c12.783,0,24.778-4.91,26.544-12.969L911.13,127.689z"/>
<path fill="#FFFFFF" d="M39.412,102.135c-8.119-8.121-21.67-8.121-29.79,0c-8.118,8.12-8.118,21.671,0,29.791
	c8.12,8.112,21.671,8.112,29.79,0C47.53,123.806,47.53,110.255,39.412,102.135C31.184,93.905,47.639,110.367,39.412,102.135z
	 M134.335,85.38c8.119,8.116,21.67,8.116,29.789,0c8.122-8.121,8.12-21.674,0-29.795c-8.119-8.124-21.67-8.124-29.789,0
	C126.218,63.707,126.215,77.26,134.335,85.38C142.563,93.604,126.107,77.15,134.335,85.38z M81.552,89.785
	c4.534-4.533,6.679-11.006,5.934-17.358c0.218-5.167,2.697-9.282,6.249-12.847c2.185-2.194,5.373-4.802,8.701-6.06
	c5.942-2.251,11.487-0.399,17.401-3.43c11.417-5.852,14.853-21.105,7.167-31.331c-7.595-10.103-22.814-11.196-31.756-2.258
	c-8.661,8.667-3.376,20.599-11.436,29.424c-2.197,2.407-4.587,4.84-7.804,6.409c-6.075,2.958-12.847,0.714-19.006,3.851
	c-11.45,5.831-14.89,21.117-7.202,31.353C57.394,97.641,72.615,98.716,81.552,89.785C86.295,85.041,73.319,98.013,81.552,89.785z
	 M204.428,95.89c-8.562-8.565-23.054-8.009-30.917,1.215c-4.21,4.938-4.712,10.367-4.942,16.147
	c-0.216,5.412-3.011,9.725-6.718,13.454c-2.256,2.268-5.341,4.865-8.895,5.971c-3.07,0.953-5.97,0.412-9.091,0.717
	c-3.67,0.356-7.225,1.681-10.215,3.845c-10.335,7.491-11.516,22.929-2.506,31.938c8.566,8.563,23.053,7.999,30.918-1.221
	c4.835-5.67,4.037-11.104,4.958-17.856c0.636-4.67,3.492-8.553,6.429-11.476c3.055-3.043,6.641-5.559,10.921-6.482
	c6.331-1.369,11.671-0.055,17.568-4.334C212.263,120.321,213.429,104.893,204.428,95.89
	C196.201,87.66,212.655,104.118,204.428,95.89z M85.322,162.868c-0.736-2.289-0.308-3.994-0.196-6.314
	c0.13-2.752-0.622-5.203,0.178-7.907c1.038-3.512,3.279-6.448,5.834-8.999c7.347-7.752,18.415-2.36,27.047-8.677
	c10.277-7.521,11.441-22.896,2.444-31.893c-8.559-8.56-23.02-8.002-30.897,1.193c-7.538,8.794-1.64,20.599-9.649,28.322
	c-2.212,2.208-4.694,4.162-7.618,5.338c-4.827,1.938-10.024,0.021-15.069,1.708c-9.725,3.251-15.766,13.396-14.074,23.479
	c1.629,9.717,10.098,17.493,19.759,17.597c9.73,0.104,13.963,2.38,17.896,8.253c2.61,3.891,2.256,7.932,2.442,11.84
	c0.222,5.24,2.371,10.296,6.086,14.012c6.934,6.928,18.098,8.123,26.334,2.794c19.038-12.317,6.605-42.827-15.631-38.325
	C94.682,174.724,87.3,169.004,85.322,162.868z"/>
<path fill="#666469" d="M290.114,125.134c0.031,0.004,0.059,0.004,0.087,0.004c0.03,0,0.06,0,0.084,0.004
	c0.031,0.008,0.059,0.008,0.088,0.011c0.026,0,0.055,0.004,0.082,0.008c-0.027-0.004-0.056-0.008-0.082-0.008
	c-0.029-0.003-0.057-0.003-0.088-0.011c-0.024-0.004-0.054-0.004-0.084-0.004C290.173,125.138,290.146,125.138,290.114,125.134"/>
<g>
	<g>
		<defs>
			<path id="SVGID_1_" d="M290.198,125.138c0.033,0.004,0.063,0.004,0.088,0.008c0.029,0.004,0.054,0.004,0.084,0.007
				c0.028,0,0.057,0.004,0.084,0.008c-0.027-0.004-0.056-0.008-0.084-0.008c-0.03-0.003-0.055-0.003-0.084-0.007
				C290.261,125.142,290.232,125.142,290.198,125.138c-0.025,0-0.054,0-0.084-0.004
				C290.145,125.138,290.173,125.138,290.198,125.138"/>
		</defs>
		<clipPath id="SVGID_2_">
			<use xlink:href="#SVGID_1_"  overflow="visible"/>
		</clipPath>
		<path clip-path="url(#SVGID_2_)" fill="#666469" d="M290.114,125.134c0.031,0.004,0.059,0.004,0.087,0.004
			c0.03,0,0.06,0,0.084,0.004c0.031,0.008,0.059,0.008,0.088,0.011c0.026,0,0.055,0.004,0.082,0.008
			c-0.027-0.004-0.056-0.008-0.082-0.008c-0.029-0.003-0.057-0.003-0.088-0.011c-0.024-0.004-0.054-0.004-0.084-0.004
			C290.173,125.138,290.146,125.138,290.114,125.134"/>
	</g>
</g>
<path fill="#666469" d="M292.89,126.549c-0.341-0.771-1.142-1.262-2.437-1.39c-0.025-0.004-0.056-0.008-0.081-0.008
	c-0.03,0-0.059-0.004-0.088-0.007c-0.026-0.004-0.055-0.004-0.084-0.008c-0.03,0-0.056,0-0.089-0.004
	c-1.331-0.063-3.01,0.236-4.909,0.818c-1.902,0.585-4.017,1.469-6.227,2.583c-2.206,1.122-4.503,2.472-6.762,4.002
	c-2.262,1.529-4.479,3.221-6.542,5.036c-1.002,0.886-1.92,1.755-2.748,2.601c-0.831,0.847-1.574,1.673-2.22,2.458
	c-0.652,0.794-1.215,1.56-1.692,2.272c-0.467,0.723-0.855,1.406-1.148,2.04c-0.196,0.976-0.677,2.001-1.327,3.028
	c-0.652,1.025-1.477,2.063-2.367,3.059c-0.897,0.997-1.851,1.958-2.785,2.841c-0.922,0.879-1.81,1.687-2.563,2.371
	c-0.432,0.394-0.999,0.911-1.695,1.521c-0.698,0.615-1.529,1.31-2.479,2.065c-0.952,0.752-2.027,1.558-3.219,2.372
	c-1.189,0.821-2.499,1.654-3.919,2.466c-1.232,0.589-2.513,1.271-3.819,2.029c-1.295,0.764-2.615,1.609-3.928,2.521
	c-1.315,0.911-2.617,1.887-3.885,2.908c-1.27,1.029-2.502,2.107-3.678,3.222c-2.015,1.917-3.665,3.752-4.919,5.432
	c-1.259,1.687-2.122,3.22-2.572,4.509c-0.45,1.297-0.486,2.352-0.087,3.098s1.236,1.175,2.532,1.221
	c0.03,0.005,0.059,0.005,0.083,0.005c0.027,0.004,0.055,0.004,0.084,0.004h0.088c0.03-0.004,0.055,0,0.082,0
	c1.324-0.021,2.962-0.41,4.794-1.089c1.834-0.681,3.86-1.657,5.968-2.858c2.109-1.201,4.305-2.625,6.46-4.209
	c2.158-1.586,4.28-3.328,6.252-5.166c1.177-1.1,2.235-2.179,3.167-3.208c0.929-1.024,1.734-2.014,2.408-2.946
	c0.673-0.933,1.215-1.813,1.617-2.619c0.401-0.804,0.669-1.54,0.785-2.192c0.392-0.854,0.933-1.714,1.553-2.552
	c0.615-0.844,1.306-1.657,2.004-2.414c0.698-0.75,1.403-1.45,2.042-2.059c0.639-0.606,1.214-1.122,1.642-1.515
	c0.548-0.493,1.333-1.205,2.306-2.044c0.976-0.839,2.158-1.809,3.488-2.822c1.34-1.015,2.841-2.068,4.464-3.086
	c1.624-1.012,3.373-1.986,5.209-2.837c1.064-0.564,2.143-1.18,3.231-1.841c1.085-0.66,2.175-1.364,3.261-2.106
	c1.088-0.743,2.167-1.521,3.221-2.334c1.061-0.813,2.099-1.657,3.097-2.527c2.108-1.818,3.856-3.572,5.218-5.188
	c1.361-1.606,2.329-3.086,2.879-4.351C293.106,128.382,293.225,127.326,292.89,126.549z M165.958,189.618
	c0.029,0,0.059,0.008,0.095,0.008c0.025,0,0.059,0,0.091,0h0.097c0.032,0,0.061,0,0.094,0c1.386-0.015,3.073-0.415,4.96-1.122
	c1.879-0.715,3.952-1.729,6.095-2.986c2.14-1.258,4.36-2.744,6.521-4.405c2.174-1.657,4.303-3.477,6.261-5.397
	c1.174-1.146,2.217-2.265,3.139-3.344c0.918-1.07,1.704-2.114,2.359-3.083c0.654-0.979,1.174-1.895,1.55-2.743
	c0.381-0.847,0.615-1.619,0.702-2.308c0.37-0.9,0.893-1.806,1.494-2.69c0.604-0.879,1.288-1.732,1.979-2.526
	c0.695-0.797,1.394-1.521,2.033-2.156c0.641-0.641,1.208-1.18,1.644-1.591c0.545-0.519,1.32-1.262,2.297-2.136
	c0.977-0.88,2.147-1.89,3.494-2.952c1.339-1.057,2.849-2.156,4.489-3.218c1.638-1.059,3.417-2.076,5.285-2.962
	c1.079-0.585,2.177-1.229,3.281-1.922c1.102-0.696,2.206-1.438,3.309-2.212c1.093-0.777,2.183-1.593,3.247-2.45
	c1.064-0.854,2.104-1.739,3.11-2.646c2.1-1.901,3.829-3.745,5.162-5.438c1.331-1.689,2.269-3.236,2.765-4.573
	c0.505-1.328,0.579-2.442,0.181-3.254c-0.4-0.817-1.263-1.337-2.624-1.479c-0.028,0-0.059-0.004-0.087-0.007
	c-0.025,0-0.063-0.009-0.088-0.009c-0.031,0-0.055,0-0.091-0.004c-0.03,0-0.055-0.004-0.092-0.004
	c-1.397-0.073-3.139,0.232-5.095,0.841c-1.954,0.607-4.121,1.528-6.37,2.693c-2.254,1.169-4.583,2.587-6.867,4.187
	c-1.43,1-2.841,2.076-4.203,3.201c-0.813,0.684-1.609,1.371-2.374,2.087c-1,0.921-1.906,1.829-2.726,2.715
	c-0.82,0.887-1.551,1.75-2.188,2.579c-0.64,0.835-1.184,1.629-1.638,2.38c-0.454,0.757-0.816,1.469-1.084,2.129l-0.108,0.375
	c-0.018,0.054-0.038,0.107-0.052,0.16c-0.018,0.051-0.029,0.104-0.043,0.154c-0.011,0.047-0.027,0.1-0.037,0.146
	c-0.011,0.05-0.018,0.092-0.029,0.149c-0.3,0.971-0.816,1.967-1.459,2.965c-0.648,0.989-1.42,1.979-2.243,2.931
	c-0.827,0.953-1.697,1.863-2.539,2.708c-0.838,0.839-1.643,1.605-2.338,2.271c-0.427,0.407-0.995,0.95-1.693,1.59
	c-0.695,0.641-1.522,1.372-2.485,2.161c-0.954,0.786-2.033,1.622-3.24,2.479c-1.197,0.859-2.52,1.729-3.965,2.571
	c-1.263,0.618-2.569,1.337-3.889,2.131c-1.326,0.799-2.66,1.679-3.987,2.636c-1.326,0.95-2.639,1.972-3.916,3.052
	c-1.277,1.07-2.517,2.206-3.684,3.378c-2.01,2.001-3.633,3.924-4.854,5.686c-1.222,1.761-2.045,3.361-2.443,4.719
	c-0.402,1.357-0.385,2.466,0.077,3.247C163.694,189.119,164.594,189.569,165.958,189.618z M234.535,140.738
	c-1.326,1.688-2.236,3.237-2.719,4.554c-0.482,1.322-0.541,2.415-0.139,3.197c0.398,0.784,1.252,1.268,2.586,1.364
	c0.025,0.005,0.055,0.005,0.084,0.009c0.026,0,0.059,0,0.087,0.003h0.087c0.031,0,0.059,0,0.089,0.003
	c1.359,0.032,3.051-0.305,4.946-0.937c1.89-0.633,3.994-1.562,6.182-2.727c2.187-1.157,4.462-2.543,6.703-4.104
	c2.242-1.554,4.451-3.274,6.5-5.098c2.103-1.858,3.847-3.655,5.194-5.309c1.351-1.658,2.297-3.169,2.824-4.467
	c0.526-1.301,0.618-2.386,0.251-3.179c-0.368-0.794-1.199-1.297-2.524-1.43c-0.032-0.007-0.059-0.007-0.091-0.016
	c-0.028-0.003-0.059-0.003-0.083-0.003c-0.029,0-0.063-0.004-0.087-0.008c-0.034-0.003-0.059-0.003-0.092-0.003
	c-1.368-0.061-3.078,0.235-5.001,0.829c-1.923,0.6-4.067,1.5-6.296,2.64c-2.228,1.14-4.536,2.525-6.807,4.087
	c-2.272,1.562-4.492,3.306-6.549,5.155C237.579,137.207,235.855,139.046,234.535,140.738z M154.621,210.832
	c1.183-1.751,1.976-3.341,2.363-4.682c0.384-1.335,0.366-2.429-0.094-3.203c-0.46-0.769-1.357-1.211-2.723-1.25
	c-0.025,0-0.059,0-0.087-0.004c-0.032,0-0.066,0-0.095,0.004c-0.034,0-0.066-0.004-0.097-0.004
	c-0.028,0.004-0.061,0.004-0.098,0.004c-1.379,0.028-3.072,0.448-4.95,1.187c-1.873,0.732-3.936,1.789-6.054,3.097
	c-2.123,1.301-4.307,2.861-6.429,4.588c-2.113,1.735-4.169,3.64-6.042,5.645c-1.913,2.059-3.457,4.016-4.609,5.815
	c-1.145,1.79-1.906,3.408-2.257,4.759c-0.343,1.365-0.286,2.462,0.205,3.223c0.486,0.758,1.4,1.179,2.758,1.179
	c0.028,0.008,0.063,0.008,0.091,0.008c0.033,0,0.063-0.008,0.095-0.008h0.093c0.032,0,0.064,0,0.099,0
	c1.375-0.07,3.04-0.523,4.883-1.296c1.84-0.771,3.86-1.854,5.945-3.177c2.081-1.313,4.224-2.872,6.317-4.598
	c2.096-1.727,4.141-3.604,6.018-5.584C151.877,214.511,153.444,212.589,154.621,210.832z M220.419,171.577
	c1.269-1.687,2.15-3.223,2.622-4.526c0.465-1.307,0.517-2.387,0.118-3.158c-0.403-0.774-1.249-1.242-2.576-1.324
	c-0.024-0.007-0.055-0.007-0.08-0.015c-0.034,0-0.063,0-0.087,0h-0.091c-0.03-0.008-0.059-0.008-0.089-0.008
	c-1.364-0.014-3.051,0.343-4.94,1c-1.896,0.665-3.985,1.629-6.154,2.844c-2.17,1.207-4.409,2.665-6.604,4.295
	c-2.191,1.638-4.334,3.44-6.303,5.362c-1.031,1.004-1.963,1.989-2.801,2.944c-0.831,0.952-1.56,1.882-2.185,2.768
	c-0.621,0.882-1.145,1.729-1.554,2.525c-0.414,0.793-0.721,1.536-0.914,2.219c-0.045,0.136-0.077,0.271-0.111,0.404
	c-0.029,0.136-0.055,0.264-0.077,0.39c-0.018,0.128-0.036,0.242-0.043,0.356c-0.009,0.122-0.012,0.234-0.012,0.34
	c-0.21,0.688-0.559,1.39-0.991,2.082c-0.431,0.692-0.943,1.384-1.484,2.029c-0.541,0.656-1.117,1.285-1.665,1.857
	c-0.545,0.575-1.064,1.094-1.511,1.543c-0.308,0.308-0.804,0.808-1.459,1.438c-0.654,0.628-1.459,1.382-2.378,2.199
	c-0.921,0.813-1.961,1.693-3.072,2.556c-1.116,0.872-2.31,1.731-3.546,2.511c-1.281,0.629-2.615,1.372-3.973,2.219
	c-1.364,0.839-2.744,1.786-4.116,2.797c-1.375,1.025-2.736,2.123-4.06,3.284c-1.322,1.153-2.604,2.382-3.809,3.641
	c-1.925,2.009-3.479,3.93-4.646,5.68c-1.163,1.751-1.943,3.326-2.32,4.659c-0.374,1.329-0.34,2.399,0.114,3.144
	c0.453,0.75,1.327,1.161,2.652,1.168h0.083c0.029,0,0.057,0,0.088-0.003h0.091c0.029-0.004,0.063-0.004,0.091-0.008
	c0.614-0.024,1.295-0.14,2.027-0.324c0.731-0.183,1.511-0.438,2.326-0.761c0.816-0.322,1.675-0.705,2.555-1.144
	c0.88-0.437,1.788-0.934,2.709-1.47l0.356-0.242c0.285-0.176,0.571-0.347,0.855-0.531c0.286-0.174,0.572-0.357,0.858-0.549
	c0.284-0.182,0.573-0.375,0.859-0.566c0.285-0.193,0.57-0.386,0.855-0.594c0.838-0.488,1.588-0.878,2.258-1.186
	c0.67-0.314,1.257-0.54,1.781-0.711c0.527-0.169,0.988-0.283,1.394-0.354c0.407-0.072,0.761-0.101,1.072-0.118h0.227
	c0.07-0.003,0.143-0.003,0.209-0.003s0.129,0,0.191,0.003c0.057,0,0.105,0,0.161,0.004c0.216,0,0.526,0,0.862,0.039
	c0.342,0.047,0.699,0.129,1.017,0.3c0.32,0.177,0.583,0.43,0.732,0.813c0.147,0.386,0.179,0.898,0.022,1.585
	c-0.084,0.168-0.161,0.336-0.234,0.501c-0.066,0.167-0.136,0.335-0.193,0.491c-0.063,0.157-0.122,0.321-0.173,0.479
	c-0.053,0.15-0.098,0.301-0.141,0.45l-0.048,0.188c-0.143,0.582-0.198,1.107-0.161,1.569c0.032,0.463,0.161,0.855,0.384,1.188
	c0.219,0.325,0.534,0.575,0.946,0.751c0.415,0.169,0.918,0.262,1.53,0.262c0.026,0,0.055,0,0.083,0h0.085
	c0.025,0,0.054-0.007,0.084-0.007h0.087c1.309-0.065,2.926-0.509,4.723-1.244c1.799-0.735,3.782-1.779,5.834-3.043
	c2.052-1.263,4.174-2.751,6.255-4.396c2.086-1.648,4.131-3.443,6.014-5.329c1.94-1.938,3.528-3.78,4.742-5.46
	c1.213-1.679,2.056-3.188,2.49-4.472c0.439-1.271,0.468-2.318,0.066-3.051c-0.399-0.736-1.233-1.153-2.527-1.188
	c-0.025,0-0.06,0-0.081-0.007h-0.176c-0.03,0.007-0.059,0-0.088,0.007c-0.822,0.021-1.771,0.179-2.805,0.473
	c-1.036,0.285-2.164,0.707-3.355,1.239c-1.193,0.529-2.447,1.175-3.735,1.911c-1.288,0.732-2.613,1.564-3.937,2.479
	c-0.859,0.464-1.634,0.83-2.334,1.12c-0.695,0.294-1.306,0.509-1.85,0.665c-0.545,0.157-1.013,0.262-1.42,0.32
	c-0.405,0.065-0.749,0.094-1.027,0.102h-0.195c-0.057,0.004-0.113,0.004-0.172,0c-0.043,0-0.094,0-0.135-0.004
	c-0.04,0-0.077-0.004-0.106-0.004c-0.223,0-0.523-0.003-0.841-0.043c-0.318-0.035-0.659-0.109-0.959-0.261
	c-0.296-0.15-0.552-0.367-0.717-0.697c-0.157-0.331-0.223-0.771-0.128-1.355c0.223-0.4,0.414-0.786,0.582-1.165
	c0.165-0.372,0.304-0.735,0.42-1.08c0.11-0.35,0.194-0.67,0.253-0.984c0.057-0.309,0.084-0.601,0.084-0.88
	c0.322-0.778,0.834-1.639,1.438-2.504c0.6-0.861,1.299-1.729,1.994-2.54c0.698-0.813,1.4-1.568,2.004-2.204
	c0.607-0.633,1.126-1.146,1.459-1.481c0.353-0.348,0.827-0.814,1.413-1.364c0.586-0.559,1.288-1.193,2.092-1.873
	c0.813-0.679,1.728-1.394,2.733-2.114c1.009-0.722,2.118-1.437,3.315-2.106c0.175-0.09,0.354-0.184,0.535-0.272
	c0.178-0.085,0.356-0.177,0.538-0.271c0.175-0.094,0.357-0.187,0.541-0.283c0.178-0.098,0.362-0.195,0.541-0.296l0.355-0.192
	c1.115-0.622,2.252-1.309,3.397-2.055c1.141-0.74,2.297-1.537,3.435-2.384c1.148-0.844,2.279-1.732,3.389-2.66
	c1.107-0.927,2.187-1.892,3.229-2.888C217.498,175.099,219.152,173.262,220.419,171.577z"/>
<path fill="#C7CACC" d="M180.91,45.566c-5.316-3.787-9.009-7.55-10.799-9.371c-2.154-2.18-7.907-7.975-8.849-11.476
	c-1.145-2.395-3.655-5.723-7.407-9.566c-7.854-8.061-18.01-15.188-22.71-15.93c-4.705-0.736-2.192,5.187,5.645,13.26
	c3.735,3.845,8.015,7.471,11.934,10.293l0.584,0.386l0.841,0.586c6.077,4.147,10.489,8.652,13.173,11.382
	c1.668,1.704,5.509,5.581,7.163,8.846c0.571,2.333,3.354,6.295,8.011,10.989c7.972,8.002,18.314,15.033,23.072,15.729
	c4.768,0.696,2.147-5.174-5.857-13.157C191.044,52.871,185.596,48.535,180.91,45.566z M194.304,29.818
	c6.884,4.391,11.782,9.359,14.706,12.277c1.693,1.688,5.568,5.538,7.251,8.782c0.593,2.313,3.431,6.241,8.136,10.889
	c8.05,7.916,18.455,14.845,23.235,15.516c4.774,0.661,2.086-5.148-6.009-13.021c-4.712-4.623-10.21-8.924-14.911-11.839
	c-5.359-3.751-9.087-7.474-10.905-9.281c-2.167-2.168-7.979-7.92-8.949-11.396c-1.156-2.379-3.701-5.694-7.492-9.514
	c-7.931-8.035-18.138-15.125-22.846-15.864c-4.699-0.743-2.14,5.176,5.766,13.218C186.063,23.419,190.342,26.999,194.304,29.818z
	 M182.026,31.866c4.726,0.725,2.125-5.195-5.773-13.219c-7.879-8.037-18.068-15.166-22.772-15.908c-4.7-0.736-2.169,5.188,5.7,13.25
	C167.053,24.019,177.296,31.136,182.026,31.866z M282.79,103.71c-8.179-7.706-18.686-14.525-23.474-15.172
	c-3.03-0.407-3.051,1.761-0.619,5.374c0.67,2.086-1.347,1.8-2.202,1.682c-0.849-0.114-2.723-0.375-6.724-2.837
	c-2.297-1.686-4.547-3.162-6.607-4.354c-4.821-3.333-9.17-7.566-10.538-8.909c-1.453-1.412-4.95-4.816-6.074-7.381
	c-0.063-0.329-0.161-0.673-0.325-1.063l-0.06-0.168c-1.013-2.379-3.717-5.913-7.847-9.989c-8.019-7.953-18.32-14.979-23.08-15.7
	c-4.734-0.712-2.126,5.176,5.828,13.149c4.133,4.115,8.892,7.959,13.297,10.878c0.871,0.575,1.752,1.132,2.558,1.625
	c4.36,2.908,7.356,5.859,9.266,7.725c1.277,1.258,5.707,5.569,7.331,8.48c0.293,2.229,3.245,6.366,8.338,11.285
	c8.147,7.82,18.65,14.618,23.478,15.236c2.265,0.29,2.835-0.856,2.074-2.849l-0.157-0.231c-0.263-0.614-0.636-1.285-1.12-2.021
	c-0.877-2.183,0.952-1.911,2.118-1.764c0.837,0.105,3.019,0.421,7.558,3.231c1.04,0.719,2.045,1.392,3.03,1.997l0.321,0.214
	c3.962,2.438,7.521,4.089,9.801,4.365C293.787,117.104,291.022,111.403,282.79,103.71z M213.624,82.6
	c-4.79-0.686-2.147,5.178,5.934,13.086c8.088,7.87,18.573,14.751,23.395,15.395c4.81,0.633,2.102-5.185-6.019-13.004
	C228.842,90.236,218.402,83.281,213.624,82.6z"/>
</svg>
