<svg xmlns="https://www.w3.org/2000/svg" width="50" height="23" viewBox="0 0 51 23" class="i-svg i-logo" role="img" aria-label="ТСН вражає">
                                    <path fill="#fff" d="M48.5878428,2.21846805 L46.7074167,2.21846805 C46.45307,2.21846805 46.2378536,2.34455442 46.2378536,2.62281401 L46.2378536,8.94561099 C46.2378536,9.3064789 45.9932896,9.53147786 45.6280738,9.53147786 L40.5183148,9.53147786 C40.2270117,9.53147786 39.9878824,9.1988707 39.9878824,8.90865464 L39.9878824,2.64672695 C39.9878824,2.37824992 39.8433179,2.2173811 39.6183189,2.2173811 L37.4270246,2.2173811 C37.0346351,2.2173811 36.858549,2.42281493 36.858549,2.67281378 L36.858549,19.3879542 C36.858549,19.6727355 36.9857223,19.9053432 37.4574593,19.9053432 L39.548754,19.9053432 C39.548754,19.9053432 39.9878824,19.8042567 39.9878824,19.3879542 L39.9878824,12.891245 C39.9878824,12.6238549 40.2041858,12.3162477 40.5183148,12.3162477 L45.6280738,12.3162477 C45.9595941,12.3162477 46.2378536,12.6488548 46.2378536,12.891245 L46.2378536,19.3879542 C46.2378536,19.7673003 46.65633,19.9053432 46.65633,19.9053432 L48.851972,19.9053432 C49.1834923,19.9053432 49.3334916,19.729257 49.3334916,19.3879542 L49.3334916,2.69672672 C49.3334916,2.37824992 49.0758841,2.21846805 48.5878428,2.21846805 L48.5878428,2.21846805 Z M50.467182,0.98803893 C50.1824007,0.704344584 49.8106633,0.505432456 49.2867527,0.496736844 L46.2911143,0.496736844 C45.7672036,0.505432456 45.3932923,0.704344584 45.108511,0.98803893 C44.8345992,1.27825499 44.5878612,1.68260095 44.5759048,2.2934677 L44.5759048,7.25214053 C44.5759048,7.60757368 44.4552532,7.86735509 44.1998195,7.86735509 L42.0215687,7.86735509 C41.7204831,7.86735509 41.6204836,7.60648672 41.6204836,7.25214053 L41.6204836,2.2934677 C41.6096141,1.68694876 41.363963,1.28042889 41.0878774,0.98803893 C40.8030961,0.704344584 40.4302717,0.505432456 39.907448,0.496736844 L36.880288,0.496736844 C36.3585513,0.505432456 35.98464,0.705431535 35.6998587,0.990212833 C35.4259469,1.28042889 35.1792089,1.68694876 35.1694263,2.2934677 L35.1694263,19.7553438 C35.1802959,20.3651236 35.4259469,20.7694696 35.6998587,21.0575118 C35.98464,21.3412061 36.3574643,21.568379 36.880288,21.5770746 L39.907448,21.5770746 C40.4291847,21.568379 40.8030961,21.34338 41.0878774,21.0607726 C41.363963,20.7705566 41.6085271,20.3640367 41.6204836,19.7553438 L41.6204836,14.5118897 C41.6204836,14.0195007 41.6737442,13.9347185 42.0215687,13.9347185 L44.1998195,13.9347185 C44.4443836,13.9347185 44.5759048,14.0195007 44.5759048,14.5118897 L44.5759048,19.7553438 C44.5889482,20.3662106 44.8345992,20.7716435 45.108511,21.0607726 C45.3932923,21.34338 45.7661167,21.568379 46.2911143,21.5770746 L49.2867527,21.5770746 C49.8106633,21.568379 50.1824007,21.34338 50.467182,21.0607726 C50.7410938,20.7727305 50.9889187,20.3662106 50.9997882,19.7553438 L50.9997882,2.29238075 C50.9889187,1.681514 50.7410938,1.27716803 50.467182,0.98803893 L50.467182,0.98803893 Z M50.1910963,19.8596912 C50.1845746,20.3683845 49.7660983,20.7890347 49.2867527,20.7912086 L46.2911143,20.7912086 C45.8117686,20.7890347 45.3911184,20.3672975 45.3845967,19.8596912 L45.3845967,13.677111 C45.3845967,13.677111 45.3019884,13.1542873 44.9704682,13.1542873 L41.2259202,13.1542873 C40.8248351,13.1542873 40.8139656,13.677111 40.8139656,13.677111 L40.8139656,19.8596912 C40.8074439,20.3727323 40.3911414,20.7890347 39.907448,20.7912086 L36.880288,20.7912086 C36.3965946,20.7890347 35.9824661,20.3716454 35.9781183,19.8596912 L35.9781183,2.26738087 C35.98464,1.75977451 36.4009424,1.33695037 36.880288,1.33260256 L39.907448,1.33260256 C40.3867936,1.33695037 40.80527,1.76086146 40.8139656,2.26738087 L40.8139656,8.18800579 C40.8139656,8.45322196 40.9280955,8.68256873 41.2259202,8.68256873 L44.9704682,8.68256873 C45.3019884,8.68256873 45.3845967,8.51191734 45.3845967,8.18800579 L45.3845967,2.26738087 C45.3911184,1.75977451 45.8117686,1.33695037 46.2911143,1.33260256 L49.2867527,1.33260256 C49.7660983,1.33695037 50.1845746,1.76086146 50.1910963,2.26738087 L50.1910963,19.8596912 L50.1910963,19.8596912 Z M13.8847417,2.34564138 L3.24348635,2.34564138 C2.91848784,2.34564138 2.77392329,2.58585766 2.77392329,2.73042221 L2.77392329,4.36845815 C2.77392329,4.60432663 2.88914015,4.70867398 3.03044385,4.70867398 L6.56629714,4.70867398 C6.79238305,4.70867398 7.06412093,5.04128114 7.06412093,5.28801914 C7.06412093,5.53258323 7.06303398,19.2923025 7.06303398,19.482519 C7.06303398,19.6738225 7.17607694,19.8586042 7.31520673,19.8586042 L9.49345757,19.8586042 C9.62389176,19.8586042 9.81302132,19.7466482 9.81302132,19.482519 L9.81302132,5.28801914 C9.81302132,4.98584661 10.0847592,4.70867398 10.3630188,4.70867398 L13.8836548,4.70867398 C14.1445231,4.70867398 14.2510444,4.50976185 14.2510444,4.2260675 L14.2510444,2.73042221 C14.2521313,2.48368422 14.1195232,2.34564138 13.8847417,2.34564138 L13.8847417,2.34564138 Z M14.3564787,0.496736844 L2.66848899,0.496736844 C2.15544788,0.506519407 1.79349302,0.792387657 1.51740734,1.08803847 C1.25110421,1.39021099 1.01197488,1.81194818 1.00001841,2.44890177 L1.00001841,4.78041278 C0.993496703,5.14236763 1.12610479,5.57171348 1.32936472,5.84779917 C1.64349371,6.26953636 1.95653575,6.37823151 2.16088263,6.44670945 C2.37609903,6.50757874 2.533707,6.51410045 2.66740204,6.51844825 L4.89347875,6.51844825 C5.08586917,6.51844825 5.2891291,6.61844779 5.2891291,6.99888082 L5.2891291,19.7803437 C5.30108557,20.4162104 5.54130186,20.8390345 5.80760498,21.141207 C6.08260371,21.4357709 6.44347162,21.6705524 6.95868663,21.6825089 L9.91954257,21.6825089 C10.4358445,21.6705524 10.7977994,21.433597 11.0717112,21.1368592 C11.3380143,20.8346867 11.5749697,20.4162104 11.5869262,19.7803437 L11.5869262,7.0195329 C11.5869262,7.0195329 11.5847523,6.51953521 11.9858374,6.51953521 L14.3575656,6.51953521 C14.5379996,6.5130135 14.7543029,6.5130135 15.0999535,6.35649248 C15.268431,6.27279721 15.4879952,6.13475437 15.693429,5.85540783 C15.8988629,5.57823519 16.0336449,5.14562849 16.0249492,4.78041278 L16.0260362,2.44890177 C16.0151667,1.81194818 15.7771243,1.31629829 15.5086473,1.01521272 C15.2314746,0.719561905 14.8684328,0.506519407 14.3564787,0.496736844 L14.3564787,0.496736844 Z M15.20104,4.88476012 C15.20104,5.06628103 15.1412577,5.2641062 14.998867,5.41410551 C14.8564764,5.56736568 14.64126,5.6586696 14.3553917,5.6586696 L11.3043188,5.6586696 C10.85106,5.6586696 10.760843,6.03149397 10.760843,6.25757989 L10.760843,19.885778 C10.7554083,20.3912105 10.3651927,20.8140346 9.91736867,20.8194694 L6.95868663,20.8194694 C6.50977566,20.8129477 6.12064701,20.3901235 6.11412531,19.885778 L6.11412531,6.25757989 C6.11412531,5.97497249 5.88695244,5.6586696 5.538041,5.6586696 L2.66740204,5.6586696 C2.38262074,5.6586696 2.16740434,5.56736568 2.02501369,5.41410551 C1.88262305,5.2641062 1.82175376,5.06628103 1.82284071,4.88476012 L1.82284071,2.32064149 C1.82936242,1.81412208 2.21957802,1.39021099 2.66740204,1.38368928 L14.3553917,1.38368928 C14.8043027,1.39021099 15.1934313,1.81194818 15.20104,2.32064149 L15.20104,4.88476012 L15.20104,4.88476012 Z M24.864039,22.0031596 C28.9172812,22.0031596 32.8781325,20.1488203 32.8781325,14.9575398 L32.8781325,14.7216714 C32.867263,14.0901525 32.8379153,13.6151547 32.5726992,13.318417 C32.2987874,13.0271139 32.1009622,12.8423322 31.5792255,12.8423322 C31.0574887,12.8423322 28.8216295,12.8499408 28.4368486,12.8499408 C27.8042428,12.8499408 27.1118547,13.0999397 27.0488115,14.214065 C27.0107682,14.842323 26.522727,15.5303633 25.0488208,15.5303633 C23.4433934,15.5303633 23.3249156,14.2227606 23.3303504,13.899936 L23.3303504,8.16952761 C23.3249156,7.84344215 23.4433934,6.47170934 25.0488208,6.47170934 C26.5629442,6.47170934 27.0107682,7.14344538 27.0488115,7.78365982 C27.1129417,8.89995903 27.8042428,9.14995788 28.4368486,9.14995788 C28.8216295,9.14995788 30.9314024,9.15213178 31.4531391,9.15213178 C31.9770497,9.15213178 32.2977004,8.97387173 32.5716122,8.68256873 C32.8368284,8.38474401 32.8661761,7.91300705 32.8770456,7.27714041 L32.8770456,7.04018498 C32.8781325,0.784778996 26.9890292,0 24.9281691,0 C22.622745,0 20.627102,0.908691469 19.2716734,2.22281585 C17.8825494,3.56846183 17.0879878,5.21736729 17.0934226,7.49453072 L17.0934226,14.3684121 C17.0890748,16.3553595 18.0977658,18.6368707 19.2412388,19.7433874 C20.5955804,21.0575118 22.5597018,22.0031596 24.864039,22.0031596 L24.864039,22.0031596 Z M17.9771142,7.84126825 C17.9825489,3.92063413 20.9010138,0.926082693 24.8662129,0.926082693 C28.8281512,0.926082693 31.9846584,3.12281171 31.9846584,7.09453256 C31.9846584,7.97822414 31.8422677,8.34126595 31.3987915,8.34561376 C31.3987915,8.34561376 29.2966273,8.34778766 28.8216295,8.34778766 C28.3466317,8.34778766 27.8640252,8.26083154 27.8042428,7.45757437 C27.6835912,5.84345136 26.231424,5.48693126 25.1825158,5.48693126 C22.6977446,5.48693126 22.465137,7.30322725 22.465137,7.93365913 L22.465137,14.0651526 C22.465137,14.6966715 22.6977446,16.5118805 25.1825158,16.5118805 C26.0314249,16.5118805 27.6770695,16.2694903 27.8042428,14.5423244 C27.8640252,13.7401541 28.3455447,13.653198 28.8216295,13.653198 C29.2977142,13.653198 31.3987915,13.654285 31.3987915,13.654285 C31.8422677,13.6618936 31.9846584,14.0227615 31.9846584,14.9053662 C31.9846584,18.878174 28.8890205,21.007512 24.9281691,21.007512 C20.96297,21.007512 17.9825489,17.9466565 17.9771142,14.0216746 L17.9771142,7.84126825 L17.9771142,7.84126825 Z M24.9596907,20.1444725 C27.9085902,20.1444725 30.9335763,18.5846971 31.1140102,15.177104 C31.1335753,14.8466708 30.9672718,14.594498 30.7422728,14.594498 C30.5150999,14.594498 29.2053234,14.595585 29.2053234,14.595585 C28.8846727,14.595585 28.6488042,14.6662368 28.5955436,14.9814528 C28.3009797,16.7281839 27.0292464,17.6162233 25.0249078,17.6162233 C22.8781786,17.6162233 21.4738372,15.9423179 21.4705764,14.0901525 L21.4705764,7.9119201 C21.4738372,6.05758081 22.8781786,4.38367547 25.0249078,4.38367547 C27.1672893,4.38367547 28.2835885,5.17497618 28.5955436,7.0151851 C28.6488042,7.33148799 28.8846727,7.40105289 29.2053234,7.40105289 C29.2053234,7.40105289 30.5150999,7.40431374 30.7422728,7.40431374 C30.9672718,7.40431374 31.1324884,7.14996709 31.1140102,6.81953382 C30.9335763,3.41302777 27.8488079,1.97607786 24.8999084,1.97607786 C21.3423161,1.97607786 18.8314581,4.78802144 18.8314581,7.9097462 L18.8314581,14.0879786 C18.832545,17.2086164 21.3999245,20.1444725 24.9596907,20.1444725 L24.9596907,20.1444725 Z"></path>
                                </svg>
