<?xml version="1.0" encoding="utf-8"?>
<!-- Generator: Adobe Illustrator 18.0.0, SVG Export Plug-In . SVG Version: 6.00 Build 0)  -->
<!DOCTYPE svg PUBLIC "-//W3C//DTD SVG 1.1//EN" "http://www.w3.org/Graphics/SVG/1.1/DTD/svg11.dtd">
<svg version="1.1" id="Layer_1" xmlns="http://www.w3.org/2000/svg" xmlns:xlink="http://www.w3.org/1999/xlink" x="0px" y="0px"
	 viewBox="0 0 841.9 595.3" enable-background="new 0 0 841.9 595.3" xml:space="preserve">
<g>
	<path d="M420.9,112.9c49.5,0,95.7,19,130.5,53.8c34.8,34.8,53.8,81,53.8,130.5s-19,95.7-53.8,130.5c-34.8,34.8-81,54.8-130.5,54.8
		s-95.7-19-130.5-53.8s-54.3-81.4-54.3-131s19-95.7,53.8-130.5S371.4,112.9,420.9,112.9 M420.9,83.3
		c-118.6,0-214.3,95.7-214.3,214.3s95.7,214.3,214.3,214.3s214.3-95.7,214.3-214.3S539.5,83.3,420.9,83.3L420.9,83.3z"/>
	<g>
		<path d="M411.9,346.2c5.7,0,11.9,0,17.6,0c1.9,0,3.8-1,4.8-2.9c0.5-1.4,0.5-2.9,0.5-4.3c0-1.9,0.5-3.3,0.5-5.2
			c1-5.2,2.4-10.5,4.8-15.7c2.4-4.8,5.2-8.6,8.6-12.4c2.9-2.9,5.7-5.7,8.6-8.1c3.8-3.8,8.1-8.1,11.9-11.9c2.4-2.4,5.2-6.2,7.1-8.6
			c3.8-5.7,7.1-12.4,9-19c2.9-11.9,1.9-24.3-2.4-35.7c-7.6-20.5-25.7-36.7-47.1-41.4c-22.4-5.2-46.2,1.9-62.4,18.1
			c-8.1,8.1-13.8,18.1-16.7,29c-1,2.9-1.9,5.7-1.9,8.6c0,2.9,2.4,4.3,4.8,4.3c3.3,0,6.2,0,9.5,0c2.9,0,5.2,0,8.1,0
			c1.4,0,2.4-0.5,3.3-1.4s1.4-2.4,1.4-3.8c0.5-2.9,1.9-5.7,2.9-8.1c5.2-10,14.3-17.6,25.2-20.5c11-2.9,22.9-1,32.4,5.7
			c9,6.2,15.2,16.2,16.7,27.1c1.4,11.4-1,23.8-9.5,31.9c-1.4,1.4-3.8,3.8-5.2,5.2L432.4,290c-2.9,3.3-6.2,6.7-9.5,10
			c-8.6,9-13.8,20.5-15.7,32.4c-0.5,3.3-1,6.2-1,9.5C407.1,343.4,408.6,346.2,411.9,346.2z"/>
		<path d="M411.9,416.7c-2.4,0-4.8-1.9-4.8-4.8v-17.6c0-2.4,1.9-4.8,4.8-4.8h17.6c2.4,0,4.8,1.9,4.8,4.8v17.6c0,2.4-1.9,4.8-4.8,4.8
			H411.9z"/>
	</g>
</g>
</svg>
