<?xml version="1.0" encoding="utf-8"?>
<!-- Generator: Adobe Illustrator 18.0.0, SVG Export Plug-In . SVG Version: 6.00 Build 0)  -->
<!DOCTYPE svg PUBLIC "-//W3C//DTD SVG 1.1//EN" "http://www.w3.org/Graphics/SVG/1.1/DTD/svg11.dtd">
<svg version="1.1"
	 id="Layer_1" xmlns:rdf="http://www.w3.org/1999/02/22-rdf-syntax-ns#" xmlns:svg="http://www.w3.org/2000/svg" xmlns:cc="http://creativecommons.org/ns#" xmlns:dc="http://purl.org/dc/elements/1.1/" xmlns:inkscape="http://www.inkscape.org/namespaces/inkscape" xmlns:sodipodi="http://sodipodi.sourceforge.net/DTD/sodipodi-0.dtd"
	 xmlns="http://www.w3.org/2000/svg" xmlns:xlink="http://www.w3.org/1999/xlink" x="0px" y="0px" viewBox="0 0 841.9 595.3"
	 enable-background="new 0 0 841.9 595.3" xml:space="preserve">
<g transform="translate(0,-952.36218)">
	<path fill="#616161" d="M420.8,1050c-73.5,0-133.2,59.8-133.2,133.3c0,17.9,4.6,37.7,10.4,52.7c36.7,74.9,73.4,131,110.1,206
		c2.4,4.7,7.5,8,12.8,8s10.4-3.3,12.8-8c36.8-74.9,73.4-131.1,110.1-206c5.8-15.1,10.4-34.8,10.4-52.7
		C554.3,1109.8,494.3,1050,420.8,1050L420.8,1050z M420.8,1078.6c58.1,0,104.9,46.7,104.9,104.8c0,12.4-4.2,30.9-8.6,42.4
		L421,1403.2l-96.1-177.4c-4.4-11.6-8.6-30.1-8.6-42.4C316.2,1125.2,362.7,1078.6,420.8,1078.6z M420.8,1107.1
		c-41.9,0-76,34.3-76,76.2s34.1,76.2,76,76.2s76.3-34.2,76.3-76.2C497.1,1141.4,462.7,1107.1,420.8,1107.1z M420.8,1135.7
		c26.5,0,47.8,21.1,47.8,47.6c0,26.5-21.3,47.6-47.8,47.6s-47.5-21.1-47.5-47.6S394.3,1135.7,420.8,1135.7z"/>
</g>
</svg>
