<?xml version="1.0" encoding="utf-8"?>
<!-- Generator: Adobe Illustrator 18.0.0, SVG Export Plug-In . SVG Version: 6.00 Build 0)  -->
<!DOCTYPE svg PUBLIC "-//W3C//DTD SVG 1.1//EN" "http://www.w3.org/Graphics/SVG/1.1/DTD/svg11.dtd">
<svg version="1.1"
	 id="Layer_1" xmlns:rdf="http://www.w3.org/1999/02/22-rdf-syntax-ns#" xmlns:svg="http://www.w3.org/2000/svg" xmlns:cc="http://creativecommons.org/ns#" xmlns:dc="http://purl.org/dc/elements/1.1/" xmlns:inkscape="http://www.inkscape.org/namespaces/inkscape" xmlns:sodipodi="http://sodipodi.sourceforge.net/DTD/sodipodi-0.dtd"
	 xmlns="http://www.w3.org/2000/svg" xmlns:xlink="http://www.w3.org/1999/xlink" x="0px" y="0px" viewBox="0 0 841.9 595.3"
	 enable-background="new 0 0 841.9 595.3" xml:space="preserve">
<g transform="translate(0,-952.36218)">
	<path fill="#616161" d="M225.7,1111.9c-10.3,0-19,8.7-19,19V1369c0,10.3,8.7,19,19,19h390.5c10.3,0,19-8.7,19-19v-238.1
		c0-10.3-8.7-19-19-19H225.7L225.7,1111.9z M263.3,1140.5h315.2l-157.6,120.1L263.3,1140.5z M235.2,1154.9l177.1,135
		c5.1,3.9,12.2,3.9,17.3,0l177.1-135v204.6H235.2V1154.9L235.2,1154.9z"/>
</g>
</svg>
