<?xml version="1.0" encoding="utf-8"?>
<!-- Generator: Adobe Illustrator 18.0.0, SVG Export Plug-In . SVG Version: 6.00 Build 0)  -->
<!DOCTYPE svg PUBLIC "-//W3C//DTD SVG 1.1//EN" "http://www.w3.org/Graphics/SVG/1.1/DTD/svg11.dtd">
<svg version="1.1" id="Layer_1" xmlns="http://www.w3.org/2000/svg" xmlns:xlink="http://www.w3.org/1999/xlink" x="0px" y="0px"
	 viewBox="0 0 841.9 595.3" enable-background="new 0 0 841.9 595.3" xml:space="preserve">
<g>
	<g>
		<path fill="#616161" d="M304.3,142.9c0.5,0,1,0,1.4,0c9.5,0.5,18.1,4.8,26.2,9.5c16.7,10,31.4,23.3,42.9,38.6
			c7.1,9,12.9,21.4,8.6,31.9c-4.8,12.4-21.4,17.6-23.8,31c-1.4,7.1,2.4,13.8,6.2,19.5c21,34.3,51,63.3,85.7,83.3
			c3.3,1.9,7.1,3.8,11,3.8c0.5,0,0.5,0,1,0c0.5,0,0.5-0.5,1-0.5c4.3-1,7.6-3.8,10.5-7.1c6.7-6.7,14.8-12.4,23.3-17.6
			c2.9-1.4,5.7-3.3,9-3.3c0.5,0,0.5,0,1,0c3.3,0.5,5.7,1.9,8.6,3.8c14.8,9.5,28.1,20.5,40.5,32.9c8.6,8.6,16.7,18.1,19,30.5
			c2.4,11.9-2.4,24.3-10.5,32.9c-8.1,9-19,14.3-31,17.1c-7.1,1.9-14.3,2.4-21.9,2.4c-16.7,0-33.3-3.8-49.1-9.5
			c-65.2-22.4-119.1-70-158.1-126.7c-16.7-23.8-31-50-37.1-78.1C262.4,211.4,264.3,142.9,304.3,142.9 M304.3,108.6L304.3,108.6
			c-20,0-38.1,8.6-51,24.3c-27.6,34.8-23.3,92.9-19,112.4c6.2,29.5,20.5,59.1,42.9,91c47.6,68.1,108.1,116.2,175.3,139.1
			c21.9,7.6,41.9,11.4,60.5,11.4c10.5,0,20.5-1,30-3.3c20-4.8,36.2-13.8,48.1-27.1c16.2-17.1,23.3-40.5,19-62.4
			c-4.3-23.8-20.5-40-28.1-48.1c-13.8-13.8-29-26.7-46.2-37.6c-0.5,0-0.5-0.5-1-0.5c-4.3-2.9-12.4-7.6-23.3-8.6H511
			c-1.4,0-2.9,0-4.3,0c-12.4,0-21,4.8-25.7,7.6c-8.1,4.8-15.7,9.5-22.4,15.7c-24.3-16.2-45.2-36.7-61-61
			c5.7-5.2,13.3-12.9,17.6-24.3c4.8-11.9,9-36.2-12.9-65.7c-14.3-19-32.4-35.7-52.9-47.6c-9-5.7-23.8-13.3-41.4-14.3
			c-0.5,0-0.5,0-1,0C306.7,108.6,305.7,108.6,304.3,108.6L304.3,108.6z"/>
	</g>
</g>
</svg>
